<svg xmlns="http://www.w3.org/2000/svg" width="374.869" height="474.108" viewBox="0 0 374.869 474.108"><defs><style>.a{opacity:0.05;}.b{fill:#7f8daa;}.c{fill:#4c6291;}</style></defs><g class="a" transform="translate(-313.499 -258.495)"><path class="b" d="M305.5,474.1H303.93l-37.586-37.83L223.89,474.1h-1.638l-36.317-37.83L145.348,474.1h-1.633l-37.875-37.83L68.758,474.1H67.135L26.2,436.273,0,470.787V166.964a150.486,150.486,0,0,1,3.807-33.639,153.1,153.1,0,0,1,10.909-31.319,162.184,162.184,0,0,1,17.27-28.357,174.155,174.155,0,0,1,22.88-24.713,185.86,185.86,0,0,1,27.74-20.4,195.558,195.558,0,0,1,31.845-15.4A203.6,203.6,0,0,1,149.646,3.39a212.037,212.037,0,0,1,75.583,0,203.582,203.582,0,0,1,35.195,9.747,195.6,195.6,0,0,1,31.845,15.4,185.845,185.845,0,0,1,27.74,20.4,174.177,174.177,0,0,1,22.88,24.713,162.267,162.267,0,0,1,17.266,28.357,153.188,153.188,0,0,1,10.911,31.326,150.545,150.545,0,0,1,3.8,33.631v306.98l-31.326-37.674L305.494,474.1Z" transform="translate(313.499 258.5)"/><circle class="c" cx="37.487" cy="37.487" r="37.487" transform="translate(492.982 395.369)"/><circle class="c" cx="37.487" cy="37.487" r="37.487" transform="translate(413.143 391.621)"/></g></svg>